<svg width="17" height="17" viewBox="0 0 17 17" fill="none" xmlns="http://www.w3.org/2000/svg">
<g clip-path="url(#clip0_124_157)">
<path d="M3.5 3L13.5 14M10.1819 10.35C9.69122 10.7961 9.04347 11.0289 8.38112 10.9974C7.71876 10.9659 7.09606 10.6725 6.65 10.1819C6.20394 9.69122 5.97106 9.04347 6.00259 8.38112C6.03412 7.71876 6.32747 7.09606 6.81812 6.65M8.97062 6.04437C9.50213 6.14616 9.98625 6.41765 10.3503 6.81808C10.7143 7.2185 10.9386 7.72623 10.9894 8.265M13.5381 11.0688C14.9006 9.84875 15.5 8.5 15.5 8.5C15.5 8.5 13.5 4 8.5 4C8.06701 3.99941 7.63471 4.03453 7.2075 4.105M5.125 4.7875C2.57687 6.0775 1.5 8.5 1.5 8.5C1.5 8.5 3.5 13 8.5 13C9.67157 13.0092 10.8285 12.7392 11.875 12.2125" stroke="#1A1E1E" stroke-width="1.5" stroke-linecap="round" stroke-linejoin="round"/>
</g>
<defs>
<clipPath id="clip0_124_157">
<rect width="16" height="16" fill="white" transform="translate(0.5 0.5)"/>
</clipPath>
</defs>
</svg>
