<svg width="17" height="17" viewBox="0 0 17 17" fill="none" xmlns="http://www.w3.org/2000/svg">
<g clip-path="url(#clip0_124_179)">
<path d="M6.00001 9C6.49446 9 6.97781 9.14662 7.38894 9.42133C7.80006 9.69603 8.12049 10.0865 8.30971 10.5433C8.49893 11.0001 8.54844 11.5028 8.45197 11.9877C8.35551 12.4727 8.11741 12.9181 7.76778 13.2678C7.41815 13.6174 6.97269 13.8555 6.48774 13.952C6.00278 14.0484 5.50012 13.9989 5.0433 13.8097C4.58649 13.6205 4.19604 13.3 3.92134 12.8889C3.64663 12.4778 3.50001 11.9945 3.50001 11.5V11.0794M11 9C10.5056 9 10.0222 9.14662 9.61108 9.42133C9.19996 9.69603 8.87953 10.0865 8.69031 10.5433C8.50109 11.0001 8.45158 11.5028 8.54805 11.9877C8.64451 12.4727 8.88261 12.9181 9.23224 13.2678C9.58187 13.6174 10.0273 13.8555 10.5123 13.952C10.9972 14.0484 11.4999 13.9989 11.9567 13.8097C12.4135 13.6205 12.804 13.3 13.0787 12.8889C13.3534 12.4778 13.5 11.9945 13.5 11.5V11.0794M5.00001 11.25H4.50001C3.79185 11.2506 3.10629 11.0007 2.56466 10.5445C2.02303 10.0883 1.66024 9.45519 1.54051 8.75723C1.42078 8.05926 1.55181 7.34144 1.91043 6.73079C2.26905 6.12014 2.83212 5.65604 3.50001 5.42063V5C3.50001 4.33696 3.7634 3.70107 4.23224 3.23223C4.70108 2.76339 5.33697 2.5 6.00001 2.5C6.66305 2.5 7.29894 2.76339 7.76778 3.23223C8.23662 3.70107 8.50001 4.33696 8.50001 5M8.50001 5V11.5M8.50001 5C8.50001 4.33696 8.7634 3.70107 9.23224 3.23223C9.70108 2.76339 10.337 2.5 11 2.5C11.6631 2.5 12.2989 2.76339 12.7678 3.23223C13.2366 3.70107 13.5 4.33696 13.5 5V5.42063C14.1679 5.65604 14.731 6.12014 15.0896 6.73079C15.4482 7.34144 15.5792 8.05926 15.4595 8.75723C15.3398 9.45519 14.977 10.0883 14.4354 10.5445C13.8937 11.0007 13.2082 11.2506 12.5 11.25H12M13 7.5H12.75C12.2859 7.5 11.8408 7.31563 11.5126 6.98744C11.1844 6.65925 11 6.21413 11 5.75V5.5M4.00001 7.5H4.25001C4.71414 7.5 5.15926 7.31563 5.48745 6.98744C5.81564 6.65925 6.00001 6.21413 6.00001 5.75V5.5" stroke="#1A1E1E" stroke-width="1.5" stroke-linecap="round" stroke-linejoin="round"/>
</g>
<defs>
<clipPath id="clip0_124_179">
<rect width="16" height="16" fill="white" transform="translate(0.5 0.5)"/>
</clipPath>
</defs>
</svg>
