<svg width="17" height="17" viewBox="0 0 17 17" fill="none" xmlns="http://www.w3.org/2000/svg">
<path d="M8.5 4.72686L7.76125 3.98874C7.28925 3.51683 6.68792 3.19547 6.0333 3.06528C5.37868 2.9351 4.70015 3.00193 4.08351 3.25734C3.46686 3.51275 2.9398 3.94526 2.56894 4.50019C2.19808 5.05511 2.00009 5.70755 2 6.37499C2 10.5 8.5 14 8.5 14C8.5 14 15 10.5 15 6.37499C14.9999 5.70755 14.8019 5.05511 14.4311 4.50019C14.0602 3.94526 13.5331 3.51275 12.9165 3.25734C12.2998 3.00193 11.6213 2.9351 10.9667 3.06528C10.3121 3.19547 9.71075 3.51683 9.23875 3.98874L7.5 5.72686L9.38625 7.61374L8 8.99999" stroke="#1A1E1E" stroke-width="1.5" stroke-linecap="round" stroke-linejoin="round"/>
</svg>
