<svg width="17" height="17" viewBox="0 0 17 17" fill="none" xmlns="http://www.w3.org/2000/svg">
<path d="M3.50001 3.00001L13.5 14M5.93751 2.70626C6.69646 2.25328 7.56193 2.00958 8.44573 1.99999C9.32953 1.9904 10.2001 2.21525 10.9687 2.65164C11.7373 3.08803 12.3765 3.72037 12.8212 4.48422C13.2658 5.24808 13.5001 6.11615 13.5 7.00001M10.5 14C9.99563 14.6106 9.35376 15 8.50001 15C7.77066 15 7.07119 14.7103 6.55546 14.1946C6.03974 13.6788 5.75001 12.9794 5.75001 12.25C5.75001 9.65688 3.50001 10.5 3.50001 7.00001C3.49823 5.94136 3.83409 4.90972 4.45876 4.05501M6.21438 5.98563C6.0724 6.30493 5.99935 6.65057 6.00001 7.00001M10.75 8.00001C10.9141 7.69224 11 7.34881 11 7.00001C11.0002 6.60181 10.9053 6.20932 10.7232 5.85521C10.5411 5.5011 10.277 5.19563 9.95292 4.96421C9.62887 4.73279 9.25423 4.58212 8.86019 4.52475C8.46614 4.46738 8.06409 4.50497 7.68751 4.63438M11.0669 11.3238C10.9167 11.4271 10.7412 11.4874 10.5593 11.4982C10.3774 11.509 10.196 11.4699 10.0347 11.3851C9.87336 11.3003 9.73829 11.173 9.64406 11.017C9.54983 10.861 9.50002 10.6823 9.50001 10.5C9.49906 10.2437 9.54568 9.98935 9.63751 9.75001" stroke="#1A1E1E" stroke-width="1.5" stroke-linecap="round" stroke-linejoin="round"/>
</svg>
