<svg width="10" height="11" viewBox="0 0 10 11" fill="none" xmlns="http://www.w3.org/2000/svg">
<path d="M6.594 10.28C5.59533 10.28 4.732 10.0747 4.004 9.664C3.276 9.25333 2.716 8.67933 2.324 7.942C1.94133 7.20467 1.75 6.346 1.75 5.366C1.75 4.34867 1.95533 3.476 2.366 2.748C2.786 2.01067 3.36467 1.45067 4.102 1.068C4.84867 0.676 5.70267 0.48 6.664 0.48C7.336 0.48 7.90533 0.559333 8.372 0.717999C8.83867 0.876666 9.28667 1.10067 9.716 1.39V2.79C9.324 2.47267 8.876 2.216 8.372 2.02C7.87733 1.824 7.308 1.726 6.664 1.726C5.95467 1.726 5.334 1.86133 4.802 2.132C4.27 2.40267 3.85467 2.80867 3.556 3.35C3.26667 3.882 3.122 4.53067 3.122 5.296C3.122 6.07067 3.26667 6.74267 3.556 7.312C3.85467 7.872 4.27 8.30133 4.802 8.6C5.34333 8.88933 5.97333 9.034 6.692 9.034C7.308 9.034 7.87733 8.936 8.4 8.74C8.932 8.53467 9.408 8.278 9.828 7.97V9.272C9.37067 9.61733 8.88067 9.86933 8.358 10.028C7.83533 10.196 7.24733 10.28 6.594 10.28ZM0.602 5.94H7.826L7.56 6.934H0.602V5.94ZM0.602 3.924H8.246L7.98 4.918H0.602V3.924Z" fill="#3F4A49"/>
</svg>
