<svg width="42" height="11" viewBox="0 0 42 11" fill="none" xmlns="http://www.w3.org/2000/svg">
<path d="M6.594 10.28C5.59533 10.28 4.732 10.0747 4.004 9.664C3.276 9.25333 2.716 8.67933 2.324 7.942C1.94133 7.20467 1.75 6.346 1.75 5.366C1.75 4.34867 1.95533 3.476 2.366 2.748C2.786 2.01067 3.36467 1.45067 4.102 1.068C4.84867 0.676 5.70267 0.48 6.664 0.48C7.336 0.48 7.90533 0.559333 8.372 0.717999C8.83867 0.876666 9.28667 1.10067 9.716 1.39V2.79C9.324 2.47267 8.876 2.216 8.372 2.02C7.87733 1.824 7.308 1.726 6.664 1.726C5.95467 1.726 5.334 1.86133 4.802 2.132C4.27 2.40267 3.85467 2.80867 3.556 3.35C3.26667 3.882 3.122 4.53067 3.122 5.296C3.122 6.07067 3.26667 6.74267 3.556 7.312C3.85467 7.872 4.27 8.30133 4.802 8.6C5.34333 8.88933 5.97333 9.034 6.692 9.034C7.308 9.034 7.87733 8.936 8.4 8.74C8.932 8.53467 9.408 8.278 9.828 7.97V9.272C9.37067 9.61733 8.88067 9.86933 8.358 10.028C7.83533 10.196 7.24733 10.28 6.594 10.28ZM0.602 5.94H7.826L7.56 6.934H0.602V5.94ZM0.602 3.924H8.246L7.98 4.918H0.602V3.924ZM17.2444 10.28C16.2457 10.28 15.3824 10.0747 14.6544 9.664C13.9264 9.25333 13.3664 8.67933 12.9744 7.942C12.5917 7.20467 12.4004 6.346 12.4004 5.366C12.4004 4.34867 12.6057 3.476 13.0164 2.748C13.4364 2.01067 14.0151 1.45067 14.7524 1.068C15.4991 0.676 16.3531 0.48 17.3144 0.48C17.9864 0.48 18.5557 0.559333 19.0224 0.717999C19.4891 0.876666 19.9371 1.10067 20.3664 1.39V2.79C19.9744 2.47267 19.5264 2.216 19.0224 2.02C18.5277 1.824 17.9584 1.726 17.3144 1.726C16.6051 1.726 15.9844 1.86133 15.4524 2.132C14.9204 2.40267 14.5051 2.80867 14.2064 3.35C13.9171 3.882 13.7724 4.53067 13.7724 5.296C13.7724 6.07067 13.9171 6.74267 14.2064 7.312C14.5051 7.872 14.9204 8.30133 15.4524 8.6C15.9937 8.88933 16.6237 9.034 17.3424 9.034C17.9584 9.034 18.5277 8.936 19.0504 8.74C19.5824 8.53467 20.0584 8.278 20.4784 7.97V9.272C20.0211 9.61733 19.5311 9.86933 19.0084 10.028C18.4857 10.196 17.8977 10.28 17.2444 10.28ZM11.2524 5.94H18.4764L18.2104 6.934H11.2524V5.94ZM11.2524 3.924H18.8964L18.6304 4.918H11.2524V3.924ZM27.8948 10.28C26.8961 10.28 26.0328 10.0747 25.3048 9.664C24.5768 9.25333 24.0168 8.67933 23.6248 7.942C23.2421 7.20467 23.0508 6.346 23.0508 5.366C23.0508 4.34867 23.2561 3.476 23.6668 2.748C24.0868 2.01067 24.6654 1.45067 25.4028 1.068C26.1494 0.676 27.0034 0.48 27.9648 0.48C28.6368 0.48 29.2061 0.559333 29.6728 0.717999C30.1394 0.876666 30.5874 1.10067 31.0168 1.39V2.79C30.6248 2.47267 30.1768 2.216 29.6728 2.02C29.1781 1.824 28.6088 1.726 27.9648 1.726C27.2554 1.726 26.6348 1.86133 26.1028 2.132C25.5708 2.40267 25.1554 2.80867 24.8568 3.35C24.5674 3.882 24.4228 4.53067 24.4228 5.296C24.4228 6.07067 24.5674 6.74267 24.8568 7.312C25.1554 7.872 25.5708 8.30133 26.1028 8.6C26.6441 8.88933 27.2741 9.034 27.9928 9.034C28.6088 9.034 29.1781 8.936 29.7008 8.74C30.2328 8.53467 30.7088 8.278 31.1288 7.97V9.272C30.6714 9.61733 30.1814 9.86933 29.6588 10.028C29.1361 10.196 28.5481 10.28 27.8948 10.28ZM21.9028 5.94H29.1268L28.8608 6.934H21.9028V5.94ZM21.9028 3.924H29.5468L29.2808 4.918H21.9028V3.924ZM38.5452 10.28C37.5465 10.28 36.6832 10.0747 35.9552 9.664C35.2272 9.25333 34.6672 8.67933 34.2752 7.942C33.8925 7.20467 33.7012 6.346 33.7012 5.366C33.7012 4.34867 33.9065 3.476 34.3172 2.748C34.7372 2.01067 35.3158 1.45067 36.0532 1.068C36.7998 0.676 37.6538 0.48 38.6152 0.48C39.2872 0.48 39.8565 0.559333 40.3232 0.717999C40.7898 0.876666 41.2378 1.10067 41.6672 1.39V2.79C41.2752 2.47267 40.8272 2.216 40.3232 2.02C39.8285 1.824 39.2592 1.726 38.6152 1.726C37.9058 1.726 37.2852 1.86133 36.7532 2.132C36.2212 2.40267 35.8058 2.80867 35.5072 3.35C35.2178 3.882 35.0732 4.53067 35.0732 5.296C35.0732 6.07067 35.2178 6.74267 35.5072 7.312C35.8058 7.872 36.2212 8.30133 36.7532 8.6C37.2945 8.88933 37.9245 9.034 38.6432 9.034C39.2592 9.034 39.8285 8.936 40.3512 8.74C40.8832 8.53467 41.3592 8.278 41.7792 7.97V9.272C41.3218 9.61733 40.8318 9.86933 40.3092 10.028C39.7865 10.196 39.1985 10.28 38.5452 10.28ZM32.5532 5.94H39.7772L39.5112 6.934H32.5532V5.94ZM32.5532 3.924H40.1972L39.9312 4.918H32.5532V3.924Z" fill="#3F4A49"/>
</svg>
