<svg width="20" height="11" viewBox="0 0 20 11" fill="none" xmlns="http://www.w3.org/2000/svg">
<path d="M6.094 10.28C5.09533 10.28 4.232 10.0747 3.504 9.664C2.776 9.25333 2.216 8.67933 1.824 7.942C1.44133 7.20467 1.25 6.346 1.25 5.366C1.25 4.34867 1.45533 3.476 1.866 2.748C2.286 2.01067 2.86467 1.45067 3.602 1.068C4.34867 0.676 5.20267 0.48 6.164 0.48C6.836 0.48 7.40533 0.559333 7.872 0.717999C8.33867 0.876666 8.78667 1.10067 9.216 1.39V2.79C8.824 2.47267 8.376 2.216 7.872 2.02C7.37733 1.824 6.808 1.726 6.164 1.726C5.45467 1.726 4.834 1.86133 4.302 2.132C3.77 2.40267 3.35467 2.80867 3.056 3.35C2.76667 3.882 2.622 4.53067 2.622 5.296C2.622 6.07067 2.76667 6.74267 3.056 7.312C3.35467 7.872 3.77 8.30133 4.302 8.6C4.84333 8.88933 5.47333 9.034 6.192 9.034C6.808 9.034 7.37733 8.936 7.9 8.74C8.432 8.53467 8.908 8.278 9.328 7.97V9.272C8.87067 9.61733 8.38067 9.86933 7.858 10.028C7.33533 10.196 6.74733 10.28 6.094 10.28ZM0.102 5.94H7.326L7.06 6.934H0.102V5.94ZM0.102 3.924H7.746L7.48 4.918H0.102V3.924ZM16.7444 10.28C15.7457 10.28 14.8824 10.0747 14.1544 9.664C13.4264 9.25333 12.8664 8.67933 12.4744 7.942C12.0917 7.20467 11.9004 6.346 11.9004 5.366C11.9004 4.34867 12.1057 3.476 12.5164 2.748C12.9364 2.01067 13.5151 1.45067 14.2524 1.068C14.9991 0.676 15.8531 0.48 16.8144 0.48C17.4864 0.48 18.0557 0.559333 18.5224 0.717999C18.9891 0.876666 19.4371 1.10067 19.8664 1.39V2.79C19.4744 2.47267 19.0264 2.216 18.5224 2.02C18.0277 1.824 17.4584 1.726 16.8144 1.726C16.1051 1.726 15.4844 1.86133 14.9524 2.132C14.4204 2.40267 14.0051 2.80867 13.7064 3.35C13.4171 3.882 13.2724 4.53067 13.2724 5.296C13.2724 6.07067 13.4171 6.74267 13.7064 7.312C14.0051 7.872 14.4204 8.30133 14.9524 8.6C15.4937 8.88933 16.1237 9.034 16.8424 9.034C17.4584 9.034 18.0277 8.936 18.5504 8.74C19.0824 8.53467 19.5584 8.278 19.9784 7.97V9.272C19.5211 9.61733 19.0311 9.86933 18.5084 10.028C17.9857 10.196 17.3977 10.28 16.7444 10.28ZM10.7524 5.94H17.9764L17.7104 6.934H10.7524V5.94ZM10.7524 3.924H18.3964L18.1304 4.918H10.7524V3.924Z" fill="#3F4A49"/>
</svg>
